<?xml version="1.0" encoding="UTF-8" ?>
<!DOCTYPE svg PUBLIC "-//W3C//DTD SVG 1.1//EN" "http://www.w3.org/Graphics/SVG/1.1/DTD/svg11.dtd">
<svg width="304pt" height="137pt" viewBox="0 0 304 137" version="1.1" xmlns="http://www.w3.org/2000/svg">
<g id="#efc994ff">
</g>
<g id="#556f8bff">
<path fill="#556f8b" opacity="1.00" d=" M 153.19 7.76 C 154.75 7.76 156.31 7.76 157.87 7.77 C 157.56 9.35 157.23 10.92 156.92 12.50 C 155.35 12.50 153.79 12.51 152.22 12.51 C 152.54 10.92 152.87 9.34 153.19 7.76 Z" />
<path fill="#556f8b" opacity="1.00" d=" M 113.85 11.05 C 115.38 10.88 116.91 10.71 118.45 10.53 C 118.23 12.55 118.02 14.57 117.80 16.60 C 119.02 16.47 120.23 16.34 121.45 16.21 C 121.33 17.14 121.10 19.00 120.99 19.93 C 119.78 20.03 118.57 20.12 117.37 20.22 C 116.99 23.87 116.59 27.53 116.47 31.21 C 117.44 31.00 119.38 30.58 120.35 30.37 C 120.51 31.59 120.68 32.82 120.84 34.04 C 118.06 34.63 113.86 37.15 111.95 33.88 C 111.03 29.58 112.46 25.14 112.76 20.81 C 112.02 20.74 110.54 20.61 109.79 20.54 C 110.77 19.00 111.84 17.52 113.06 16.16 C 113.36 14.46 113.60 12.76 113.85 11.05 Z" />
<path fill="#556f8b" opacity="1.00" d=" M 195.72 10.32 C 197.49 10.56 199.26 10.81 201.03 11.06 C 200.68 17.55 200.84 24.06 200.53 30.55 C 202.44 28.05 204.35 25.55 206.25 23.05 C 206.24 19.34 206.24 15.62 206.25 11.90 C 207.69 12.09 209.13 12.29 210.57 12.50 C 210.48 15.25 210.37 17.99 210.23 20.74 C 212.05 18.23 213.88 15.72 215.71 13.21 C 216.81 13.38 219.02 13.71 220.13 13.87 C 217.64 17.35 214.47 20.40 212.51 24.23 C 212.04 26.82 212.25 29.47 212.21 32.08 C 216.64 26.27 221.01 20.42 225.36 14.55 C 227.09 14.80 228.82 15.04 230.56 15.30 C 224.54 22.82 218.42 30.26 212.39 37.77 C 211.40 37.62 209.43 37.33 208.45 37.19 C 208.28 33.62 208.23 30.05 208.21 26.48 C 205.67 29.68 203.09 32.85 200.54 36.04 C 199.21 35.85 197.88 35.67 196.55 35.51 C 196.17 27.11 196.12 18.71 195.72 10.32 Z" />
<path fill="#556f8b" opacity="1.00" d=" M 127.13 32.80 C 121.51 27.13 126.11 15.62 134.08 15.21 C 136.29 14.96 137.92 16.77 139.70 17.74 C 139.72 17.14 139.75 15.93 139.77 15.32 C 141.37 15.20 142.96 15.07 144.56 14.94 C 143.36 21.22 142.44 27.56 142.68 33.97 C 140.66 33.70 138.53 33.34 137.37 31.44 C 134.63 33.83 130.20 35.71 127.13 32.80 M 133.41 19.47 C 129.75 21.09 127.91 26.99 131.36 29.69 C 135.02 31.67 138.74 27.44 138.51 23.86 C 139.35 20.97 136.18 18.03 133.41 19.47 Z" />
<path fill="#556f8b" opacity="1.00" d=" M 151.67 15.02 C 153.23 15.01 154.80 15.00 156.37 15.00 C 154.88 20.97 154.39 27.22 152.27 33.01 C 150.82 33.22 149.36 33.38 147.89 33.49 C 149.10 27.32 150.42 21.18 151.67 15.02 Z" />
<path fill="#556f8b" opacity="1.00" d=" M 163.09 14.92 C 164.47 15.05 165.85 15.16 167.23 15.26 C 167.04 15.92 166.66 17.24 166.47 17.90 C 169.24 16.36 172.33 14.43 175.65 15.36 C 177.71 15.80 178.41 18.13 178.06 19.98 C 177.48 24.68 175.93 29.18 174.86 33.78 C 173.27 33.77 171.70 33.75 170.12 33.73 C 171.14 29.23 172.88 24.82 172.93 20.16 C 171.13 18.09 167.92 19.80 166.65 21.65 C 164.69 25.22 164.26 29.38 163.20 33.26 C 161.63 33.25 160.07 33.25 158.51 33.25 C 160.02 27.14 161.55 21.03 163.09 14.92 Z" />
<path fill="#556f8b" opacity="1.00" d=" M 234.43 20.70 C 235.09 19.24 235.75 17.78 236.42 16.33 C 237.93 16.67 239.45 17.01 240.96 17.36 C 240.30 18.80 239.65 20.24 238.99 21.68 C 237.47 21.35 235.95 21.02 234.43 20.70 Z" />
<path fill="#556f8b" opacity="1.00" d=" M 93.28 22.61 C 95.68 20.46 98.38 17.91 101.88 18.23 C 104.32 18.18 105.17 20.93 105.17 22.92 C 105.29 27.45 104.76 31.97 104.49 36.49 C 102.96 36.71 101.44 36.93 99.92 37.14 C 100.04 32.80 100.82 28.42 100.23 24.09 C 99.15 20.98 95.64 23.76 94.50 25.51 C 92.69 29.44 93.49 34.01 92.97 38.21 C 91.44 38.47 89.90 38.72 88.37 38.96 C 88.69 32.74 89.08 26.52 89.39 20.30 C 90.78 20.10 92.17 19.87 93.56 19.60 C 93.49 20.35 93.35 21.86 93.28 22.61 Z" />
<path fill="#556f8b" opacity="1.00" d=" M 77.28 22.55 C 78.85 22.20 80.42 21.84 81.99 21.50 C 82.00 26.05 82.00 30.59 81.99 35.14 C 82.32 35.53 82.99 36.32 83.32 36.72 C 83.29 37.67 83.25 39.58 83.23 40.53 C 81.19 40.69 79.03 40.71 77.76 38.80 C 75.64 40.89 73.29 43.18 70.11 43.25 C 67.84 43.27 66.43 41.14 66.27 39.09 C 65.69 34.45 66.07 29.76 66.01 25.09 C 67.49 24.77 68.98 24.45 70.47 24.13 C 70.45 28.98 70.42 33.84 70.97 38.66 C 73.49 38.35 76.42 37.67 77.18 34.85 C 77.92 30.80 77.41 26.64 77.28 22.55 Z" />
<path fill="#556f8b" opacity="1.00" d=" M 233.35 23.06 C 234.88 23.40 236.41 23.74 237.94 24.08 C 235.35 29.76 232.81 35.47 230.21 41.14 C 228.69 40.81 227.18 40.48 225.67 40.13 C 228.22 34.44 230.79 28.75 233.35 23.06 Z" />
<path fill="#556f8b" opacity="1.00" d=" M 236.10 42.27 C 238.91 36.70 241.86 31.20 244.71 25.65 C 246.08 26.03 247.45 26.41 248.82 26.80 C 248.42 27.43 247.60 28.69 247.19 29.33 C 250.51 28.30 254.60 26.96 257.62 29.47 C 259.14 30.33 258.43 32.55 258.17 33.93 C 256.52 38.41 253.92 42.46 251.72 46.68 C 250.23 46.25 248.74 45.81 247.26 45.37 C 249.68 40.97 252.30 36.58 253.48 31.64 C 251.05 31.74 248.06 31.21 246.25 33.29 C 243.86 36.39 242.45 40.10 240.64 43.53 C 239.12 43.12 237.61 42.70 236.10 42.27 Z" />
<path fill="#556f8b" opacity="1.00" d=" M 28.52 32.06 C 28.73 29.55 31.61 29.05 33.35 27.85 C 35.40 36.13 37.32 44.44 39.31 52.73 C 37.87 53.40 36.43 54.06 34.98 54.72 C 33.69 49.33 32.41 43.93 31.08 38.55 C 30.29 43.38 29.50 48.22 28.73 53.06 C 27.93 53.46 27.12 53.86 26.32 54.25 C 23.65 51.02 20.97 47.80 18.23 44.63 C 19.49 50.04 20.76 55.44 22.15 60.82 C 20.69 61.56 19.23 62.31 17.76 63.05 C 15.84 54.79 13.81 46.56 11.91 38.29 C 13.45 37.52 14.98 36.75 16.52 35.99 C 19.68 39.71 22.83 43.44 25.99 47.17 C 26.88 42.14 27.49 37.06 28.52 32.06 Z" />
<path fill="#556f8b" opacity="1.00" d=" M 50.24 29.34 C 55.01 26.96 60.60 30.93 60.71 36.02 C 62.01 43.22 54.14 51.38 47.00 47.93 C 40.05 43.45 42.93 31.87 50.24 29.34 M 51.20 33.18 C 46.70 35.05 46.37 42.54 50.87 44.67 C 57.55 44.87 58.27 32.04 51.20 33.18 Z" />
<path fill="#556f8b" opacity="1.00" d=" M 262.97 37.93 C 266.97 33.71 274.47 33.16 278.71 37.29 C 281.36 39.82 279.62 45.02 275.95 45.41 C 272.02 45.84 268.30 44.14 264.61 43.07 C 265.00 44.70 264.50 46.83 265.95 48.02 C 267.84 49.59 270.36 48.46 272.52 48.27 C 273.47 49.02 274.42 49.79 275.37 50.55 C 271.17 52.25 265.77 53.33 262.17 49.83 C 258.63 46.68 259.84 40.92 262.97 37.93 M 266.32 40.26 C 269.04 41.20 271.94 42.94 274.90 41.91 C 276.07 40.51 275.89 39.43 274.37 38.66 C 271.76 36.39 268.70 39.08 266.32 40.26 Z" />
<path fill="#556f8b" opacity="1.00" d=" M 283.42 47.17 C 284.52 43.61 288.56 42.04 291.99 42.87 C 295.31 43.32 297.38 46.13 299.37 48.51 C 298.21 49.02 297.05 49.54 295.90 50.05 C 294.39 47.76 290.29 43.65 288.34 47.73 C 290.09 50.19 292.58 52.16 293.73 55.02 C 293.55 58.79 289.40 60.96 285.99 60.17 C 282.02 59.71 279.21 56.60 277.11 53.48 C 278.25 52.94 279.40 52.40 280.56 51.87 C 282.45 54.34 285.62 58.80 288.97 55.72 C 287.68 52.50 284.18 50.63 283.42 47.17 Z" />
<path fill="#556f8b" opacity="1.00" d=" M 116.16 82.76 C 122.21 86.40 128.28 90.02 134.38 93.60 C 139.91 96.73 143.61 102.06 148.01 106.49 C 147.43 111.57 146.83 116.65 146.22 121.73 C 150.87 125.65 155.56 129.55 160.20 133.49 C 149.15 133.51 138.10 133.50 127.05 133.50 C 125.78 129.92 124.52 126.34 123.25 122.76 C 125.87 117.91 128.52 113.08 131.15 108.24 C 126.85 101.69 122.63 95.09 118.37 88.51 C 110.91 100.01 103.49 111.53 96.06 123.04 C 94.31 125.84 92.50 128.62 90.35 131.15 C 90.54 127.55 92.78 124.59 94.45 121.56 C 101.71 108.64 108.90 95.68 116.16 82.76 Z" />
<path fill="#556f8b" opacity="1.00" d=" M 185.71 125.63 C 186.89 122.27 188.10 118.92 189.33 115.58 C 192.07 121.56 194.91 127.50 197.64 133.49 C 188.66 133.51 179.67 133.50 170.69 133.50 C 171.14 132.17 171.60 130.86 172.06 129.55 C 176.61 128.25 181.16 126.91 185.71 125.63 Z" />
</g>
<g id="#758dadff">
<path fill="#758dad" opacity="1.00" d=" M 155.18 48.76 C 166.62 62.63 177.98 76.59 189.39 90.49 C 193.19 88.59 196.99 86.68 200.78 84.76 C 207.52 100.99 214.23 117.24 220.93 133.48 C 219.86 133.49 217.71 133.52 216.64 133.53 C 209.88 125.39 203.20 117.18 196.49 109.00 C 197.33 102.23 198.13 95.45 199.11 88.70 C 191.36 94.78 183.26 100.40 175.31 106.21 C 175.48 102.24 176.18 98.23 175.69 94.26 C 174.66 90.93 172.64 88.03 171.06 84.95 C 166.45 76.30 161.73 67.71 157.18 59.02 C 153.09 67.01 149.12 75.05 145.09 83.07 C 143.36 86.47 142.13 90.41 138.86 92.71 C 139.46 89.86 140.35 87.09 141.44 84.39 C 146.14 72.56 150.57 60.62 155.18 48.76 Z" />
</g>
</svg>
